<?xml version="1.0" encoding="UTF-8" standalone="no"?>
<!DOCTYPE svg PUBLIC "-//W3C//DTD SVG 1.1//EN" "http://www.w3.org/Graphics/SVG/1.1/DTD/svg11.dtd">
<svg width="100%" height="100%" viewBox="0 0 143 143" version="1.1" xmlns="http://www.w3.org/2000/svg" xmlns:xlink="http://www.w3.org/1999/xlink" xml:space="preserve" xmlns:serif="http://www.serif.com/" style="fill-rule:evenodd;clip-rule:evenodd;stroke-linejoin:round;stroke-miterlimit:1.5;">
    <g transform="matrix(1,0,0,1,-78.9056,-314.357)">
        <g>
            <g transform="matrix(156.661,0,0,156.661,88.6423,426.283)">
                <path d="M0.02,0L0.394,-0.711L0.485,-0.687L0.168,-0.084L0.793,-0.084L0.735,0L0.02,0Z" style="fill-rule:nonzero;"/>
            </g>
            <g transform="matrix(218.236,0,0,218.236,135.719,501.606)">
                <path d="M0.031,-0.584L0.054,-0.654C0.105,-0.636 0.143,-0.62 0.167,-0.606C0.16,-0.665 0.157,-0.706 0.157,-0.728L0.228,-0.728C0.227,-0.696 0.223,-0.655 0.216,-0.607C0.25,-0.624 0.288,-0.639 0.332,-0.654L0.354,-0.584C0.313,-0.571 0.272,-0.562 0.232,-0.557C0.252,-0.54 0.28,-0.509 0.316,-0.465L0.258,-0.423C0.239,-0.449 0.217,-0.484 0.191,-0.528C0.167,-0.482 0.146,-0.447 0.127,-0.423L0.07,-0.465C0.108,-0.511 0.135,-0.542 0.151,-0.557C0.109,-0.565 0.069,-0.574 0.031,-0.584Z" style="fill-rule:nonzero;"/>
            </g>
            <g transform="matrix(1,0,0,1,-3.81194,-3.04956)">
                <circle cx="153.939" cy="388.628" r="69.187" style="fill:none;stroke:black;stroke-width:4.07px;"/>
            </g>
        </g>
    </g>
</svg>
